<svg width="8" height="6" viewBox="0 0 8 6" fill="none" xmlns="http://www.w3.org/2000/svg">
<path d="M7.35463 0.146894C7.40119 0.193339 7.43814 0.248515 7.46334 0.30926C7.48855 0.370005 7.50152 0.435127 7.50152 0.500894C7.50152 0.566661 7.48855 0.631782 7.46334 0.692528C7.43814 0.753273 7.40119 0.808448 7.35463 0.854894L2.85463 5.35489C2.80819 5.40146 2.75301 5.4384 2.69227 5.46361C2.63152 5.48881 2.5664 5.50179 2.50063 5.50179C2.43486 5.50179 2.36974 5.48881 2.309 5.46361C2.24825 5.4384 2.19308 5.40146 2.14663 5.35489L0.146631 3.35489C0.0527448 3.26101 0 3.13367 0 3.00089C0 2.86812 0.0527448 2.74078 0.146631 2.64689C0.240518 2.55301 0.367856 2.50026 0.500632 2.50026C0.633407 2.50026 0.760745 2.55301 0.854632 2.64689L2.50063 4.29389L6.64663 0.146894C6.69308 0.10033 6.74825 0.0633878 6.809 0.0381813C6.86974 0.0129749 6.93486 0 7.00063 0C7.0664 0 7.13152 0.0129749 7.19226 0.0381813C7.25301 0.0633878 7.30819 0.10033 7.35463 0.146894Z" fill="white"/>
</svg>
